<mxfile host="app.diagrams.net" modified="2022-03-02T08:21:43.445Z" agent="5.0 (Macintosh; Intel Mac OS X 10_15_7) AppleWebKit/537.36 (KHTML, like Gecko) Chrome/98.0.4758.109 Safari/537.36" etag="mSMpAPrrEmddbrFuyNFw" version="16.5.6" type="github">
  <diagram id="OfJCBIycQM4vAyeGQAoX" name="Page-1">
    <mxGraphModel dx="1426" dy="684" grid="1" gridSize="10" guides="1" tooltips="1" connect="1" arrows="1" fold="1" page="1" pageScale="1" pageWidth="827" pageHeight="1169" math="0" shadow="0">
      <root>
        <mxCell id="0" />
        <mxCell id="1" parent="0" />
        <mxCell id="t2nlFsEmCYC2E_eaH2C--41" value="" style="group" vertex="1" connectable="0" parent="1">
          <mxGeometry x="210" y="60" width="430" height="320" as="geometry" />
        </mxCell>
        <mxCell id="t2nlFsEmCYC2E_eaH2C--13" value="&lt;font style=&quot;font-size: 18px&quot;&gt;主控MCU&lt;/font&gt;" style="rounded=0;whiteSpace=wrap;html=1;" vertex="1" parent="t2nlFsEmCYC2E_eaH2C--41">
          <mxGeometry x="160" width="100" height="220" as="geometry" />
        </mxCell>
        <mxCell id="t2nlFsEmCYC2E_eaH2C--20" value="" style="edgeStyle=orthogonalEdgeStyle;rounded=0;orthogonalLoop=1;jettySize=auto;html=1;fontSize=18;" edge="1" parent="t2nlFsEmCYC2E_eaH2C--41" source="t2nlFsEmCYC2E_eaH2C--14" target="t2nlFsEmCYC2E_eaH2C--13">
          <mxGeometry relative="1" as="geometry">
            <Array as="points">
              <mxPoint x="270" y="35" />
              <mxPoint x="270" y="35" />
            </Array>
          </mxGeometry>
        </mxCell>
        <mxCell id="t2nlFsEmCYC2E_eaH2C--14" value="温度传感器" style="rounded=0;whiteSpace=wrap;html=1;fontSize=18;" vertex="1" parent="t2nlFsEmCYC2E_eaH2C--41">
          <mxGeometry x="330" y="20" width="100" height="30" as="geometry" />
        </mxCell>
        <mxCell id="t2nlFsEmCYC2E_eaH2C--15" value="气压传感器" style="rounded=0;whiteSpace=wrap;html=1;fontSize=18;" vertex="1" parent="t2nlFsEmCYC2E_eaH2C--41">
          <mxGeometry x="330" y="70" width="100" height="30" as="geometry" />
        </mxCell>
        <mxCell id="t2nlFsEmCYC2E_eaH2C--17" value="频率传感器" style="rounded=0;whiteSpace=wrap;html=1;fontSize=18;" vertex="1" parent="t2nlFsEmCYC2E_eaH2C--41">
          <mxGeometry x="330" y="120" width="100" height="30" as="geometry" />
        </mxCell>
        <mxCell id="t2nlFsEmCYC2E_eaH2C--18" value="压差传感器" style="rounded=0;whiteSpace=wrap;html=1;fontSize=18;" vertex="1" parent="t2nlFsEmCYC2E_eaH2C--41">
          <mxGeometry x="330" y="170" width="100" height="30" as="geometry" />
        </mxCell>
        <mxCell id="t2nlFsEmCYC2E_eaH2C--21" value="" style="edgeStyle=orthogonalEdgeStyle;rounded=0;orthogonalLoop=1;jettySize=auto;html=1;fontSize=18;" edge="1" parent="t2nlFsEmCYC2E_eaH2C--41">
          <mxGeometry relative="1" as="geometry">
            <mxPoint x="330" y="84.5" as="sourcePoint" />
            <mxPoint x="260" y="84.5" as="targetPoint" />
            <Array as="points">
              <mxPoint x="270" y="84.5" />
              <mxPoint x="270" y="84.5" />
            </Array>
          </mxGeometry>
        </mxCell>
        <mxCell id="t2nlFsEmCYC2E_eaH2C--22" value="" style="edgeStyle=orthogonalEdgeStyle;rounded=0;orthogonalLoop=1;jettySize=auto;html=1;fontSize=18;" edge="1" parent="t2nlFsEmCYC2E_eaH2C--41">
          <mxGeometry relative="1" as="geometry">
            <mxPoint x="330" y="134.5" as="sourcePoint" />
            <mxPoint x="260" y="134.5" as="targetPoint" />
            <Array as="points">
              <mxPoint x="270" y="134.5" />
              <mxPoint x="270" y="134.5" />
            </Array>
          </mxGeometry>
        </mxCell>
        <mxCell id="t2nlFsEmCYC2E_eaH2C--23" value="" style="edgeStyle=orthogonalEdgeStyle;rounded=0;orthogonalLoop=1;jettySize=auto;html=1;fontSize=18;" edge="1" parent="t2nlFsEmCYC2E_eaH2C--41">
          <mxGeometry relative="1" as="geometry">
            <mxPoint x="330" y="184.5" as="sourcePoint" />
            <mxPoint x="260" y="184.5" as="targetPoint" />
            <Array as="points">
              <mxPoint x="270" y="184.5" />
              <mxPoint x="270" y="184.5" />
            </Array>
          </mxGeometry>
        </mxCell>
        <mxCell id="t2nlFsEmCYC2E_eaH2C--24" value="NB260模组" style="rounded=0;whiteSpace=wrap;html=1;fontSize=18;" vertex="1" parent="t2nlFsEmCYC2E_eaH2C--41">
          <mxGeometry y="80" width="120" height="60" as="geometry" />
        </mxCell>
        <mxCell id="t2nlFsEmCYC2E_eaH2C--25" value="" style="edgeStyle=orthogonalEdgeStyle;rounded=0;orthogonalLoop=1;jettySize=auto;html=1;fontSize=18;" edge="1" parent="t2nlFsEmCYC2E_eaH2C--41" source="t2nlFsEmCYC2E_eaH2C--13" target="t2nlFsEmCYC2E_eaH2C--24">
          <mxGeometry relative="1" as="geometry" />
        </mxCell>
        <mxCell id="t2nlFsEmCYC2E_eaH2C--27" value="" style="edgeStyle=orthogonalEdgeStyle;rounded=0;orthogonalLoop=1;jettySize=auto;html=1;fontSize=18;" edge="1" parent="t2nlFsEmCYC2E_eaH2C--41" source="t2nlFsEmCYC2E_eaH2C--26" target="t2nlFsEmCYC2E_eaH2C--13">
          <mxGeometry relative="1" as="geometry" />
        </mxCell>
        <mxCell id="t2nlFsEmCYC2E_eaH2C--26" value="供电电源" style="rounded=0;whiteSpace=wrap;html=1;fontSize=18;" vertex="1" parent="t2nlFsEmCYC2E_eaH2C--41">
          <mxGeometry x="160" y="260" width="100" height="60" as="geometry" />
        </mxCell>
      </root>
    </mxGraphModel>
  </diagram>
</mxfile>
